
            <svg xmlns="http://www.w3.org/2000/svg">
                <filter id="grayscale">
                    <feColorMatrix type="saturate" values="0"/>
                </filter>
                <g filter="url(#grayscale)">
                    <svg xmlns="http://www.w3.org/2000/svg" viewBox="133.18000030517578 112.61000061035156 308.63999938964844 349.7800006866455"> <svg xmlns="http://www.w3.org/2000/svg" xmlns:xlink="http://www.w3.org/1999/xlink" version="1.1" id="Layer_1" x="211.005" y="182.61000061035156" viewBox="319.5876159667969 309.8000183105469 361.4126281738281 394.5000305175781" xml:space="preserve" height="167" width="152.99350243168033" preserveAspectRatio="xMinYMin" enable-background="new 0 0 1000 1000" style="overflow: visible;"><path id="XMLID_94_" class="st0" d="M433.6,506c-0.8,0.7-1.6,1.3-2.5,1.7c-1.7,0.9-3.6,1.3-5.4,1.3c-4.5,0-8.8-2.5-11-6.8     c-3-6-0.5-13.4,5.6-16.3c6-3,13.4-0.5,16.3,5.6c1.3,2.7,1.5,5.7,0.8,8.4l17.2,10.1c4.5-4,8.7-8.6,12.8-13.7l-44-28.2l-13,6.4     l-14.4-8.2c-0.8,0.7-1.6,1.3-2.6,1.8c-1.7,0.8-3.5,1.3-5.4,1.3c-1.3,0-2.7-0.2-3.9-0.7c-3.1-1-5.6-3.2-7-6.2     c-1.4-2.9-1.7-6.2-0.6-9.3c1.1-3.1,3.2-5.6,6.2-7c2.9-1.4,6.2-1.7,9.3-0.6c3.1,1,5.6,3.2,7,6.2c1.3,2.6,1.5,5.5,0.8,8.3l10.9,6.2     l13.3-6.5l47.8,30.7c3.4-5,6.6-10.4,9.5-16.4l-48.7-28.7v-14.8l-26.7-17.6c-2.1,1.8-4.9,3-7.9,3c-6.7,0-12.2-5.5-12.2-12.2     s5.5-12.2,12.2-12.2c6.7,0,12.2,5.5,12.2,12.2c0,1-0.2,2.1-0.4,3l30.1,19.9V441l44.4,26.2c0.9-2.1,1.8-4.3,2.6-6.5     c0,0,1.3-4.3,2.6-11.4l-16.4-10.9c-2.1,1.8-4.9,3-7.9,3c-6.7,0-12.2-5.5-12.2-12.2s5.5-12.2,12.2-12.2c6.7,0,12.2,5.5,12.2,12.2     c0,1-0.2,2.1-0.4,3l13.8,9.1c3.1-22.4,3.5-59.9-19.8-88l-130,34.2c0,0-6.7,84.8,22,153.8c0,0,47.2,3.6,85.7-26.5L433.6,506z" style="fill: #F7941E;"></path><path id="XMLID_93_" class="st0" d="M465.2,424.3c-2.7,0-4.9,2.2-4.9,4.9s2.2,4.9,4.9,4.9c2.7,0,4.9-2.2,4.9-4.9     S467.8,424.3,465.2,424.3z" style="fill: #F7941E;"></path><path id="XMLID_92_" class="st0" d="M425.6,491.9c-0.7,0-1.5,0.2-2.1,0.5c-2.4,1.2-3.4,4.1-2.2,6.5c1.2,2.4,4.1,3.4,6.5,2.2     c2.4-1.2,3.4-4.1,2.2-6.5C429.2,492.9,427.4,491.9,425.6,491.9z" style="fill: #F7941E;"></path><path id="XMLID_91_" class="st0" d="M389.6,452.4c-0.5-0.2-1-0.3-1.6-0.3c-0.7,0-1.5,0.2-2.1,0.5c-1.2,0.6-2,1.6-2.5,2.8     c-0.4,1.2-0.3,2.6,0.2,3.7c0.6,1.2,1.6,2,2.8,2.5c1.2,0.4,2.6,0.3,3.7-0.2h0c1.2-0.6,2-1.6,2.5-2.8s0.3-2.6-0.2-3.7     C391.8,453.6,390.8,452.8,389.6,452.4z" style="fill: #F7941E;"></path><path id="XMLID_87_" class="st0" d="M398,398.7c-2.7,0-4.9,2.2-4.9,4.9c0,2.7,2.2,4.9,4.9,4.9c2.7,0,4.9-2.2,4.9-4.9     C402.9,400.9,400.7,398.7,398,398.7z" style="fill: #F7941E;"></path><path id="XMLID_85_" class="st1" d="M610.7,460.7c1.2,0.6,2.5,0.7,3.7,0.2c1.2-0.4,2.2-1.3,2.8-2.5c1.2-2.4,0.2-5.3-2.2-6.5     c-0.7-0.3-1.4-0.5-2.1-0.5c-1.8,0-3.5,1-4.4,2.7C607.3,456.6,608.3,459.6,610.7,460.7z" style="fill: #2F77BD;"></path><path id="XMLID_83_" class="st1" d="M659,387.6l-130-34.2c-23.2,28-22.8,65.5-19.8,87.9l14.7-9.7c-0.3-1-0.4-2-0.4-3     c0-6.7,5.5-12.2,12.2-12.2s12.2,5.5,12.2,12.2s-5.5,12.2-12.2,12.2c-3,0-5.8-1.1-7.9-3l-17.3,11.4c1.3,7.1,2.6,11.4,2.6,11.4     c0.8,2.2,1.7,4.4,2.6,6.5l45.3-26.7v-14.5l30.1-19.9c-0.3-1-0.4-2-0.4-3c0-6.7,5.5-12.2,12.2-12.2c6.7,0,12.2,5.5,12.2,12.2     s-5.5,12.2-12.2,12.2c-3,0-5.8-1.1-7.9-3l-26.7,17.6v14.8l-49.6,29.3c2.9,6,6.1,11.4,9.5,16.4L577,459l13.3,6.5l10.9-6.2     c-0.7-2.7-0.5-5.6,0.8-8.3c3-6,10.3-8.5,16.3-5.6c6,3,8.5,10.3,5.6,16.3c-1.4,2.9-3.9,5.1-7,6.2c-1.3,0.4-2.6,0.7-3.9,0.7     c-1.8,0-3.7-0.4-5.4-1.3c-1-0.5-1.8-1.1-2.6-1.8l-14.4,8.2l-13-6.4l-44.8,28.8c4,5.1,8.3,9.6,12.7,13.6l18.1-10.6     c-0.7-2.7-0.5-5.7,0.8-8.4c3-6,10.3-8.5,16.3-5.6c6,3,8.5,10.3,5.6,16.3c-2.1,4.3-6.5,6.8-11,6.8c-1.8,0-3.6-0.4-5.4-1.3h0     c-0.9-0.5-1.8-1.1-2.5-1.7l-16,9.4c38.5,30.2,85.7,26.5,85.7,26.5C665.7,472.4,659,387.6,659,387.6z" style="fill: #2F77BD;"></path><path id="XMLID_79_" class="st1" d="M573.1,500.6c2.4,1.2,5.3,0.2,6.5-2.2c1.2-2.4,0.2-5.3-2.2-6.5c-2.4-1.2-5.3-0.2-6.5,2.2     C569.6,496.5,570.6,499.4,573.1,500.6z" style="fill: #2F77BD;"></path><path id="XMLID_78_" class="st1" d="M602.9,407.9c2.7,0,4.9-2.2,4.9-4.9s-2.2-4.9-4.9-4.9c-2.7,0-4.9,2.2-4.9,4.9     S600.2,407.9,602.9,407.9z" style="fill: #2F77BD;"></path><path id="XMLID_68_" class="st1" d="M535.7,433.5c2.7,0,4.9-2.2,4.9-4.9s-2.2-4.9-4.9-4.9c-2.7,0-4.9,2.2-4.9,4.9     S533,433.5,535.7,433.5z" style="fill: #2F77BD;"></path><path id="XMLID_15_" class="st2" d="M449,561.6c0.7,1.1,1.7,1.9,3,2.2c1.3,0.3,2.6,0.1,3.7-0.5c1.1-0.7,1.9-1.7,2.2-3    c0.3-1.3,0.1-2.6-0.5-3.7c-1.4-2.3-4.4-3.1-6.7-1.7C448.4,556.3,447.6,559.3,449,561.6z" style="fill: #8DC63F;"></path><path id="XMLID_84_" class="st2" d="M535.1,527.4l0.2,24c1,0.3,1.9,0.7,2.8,1.3c2.7,1.8,4.6,4.5,5.3,7.7c0.7,3.2,0.1,6.5-1.7,9.2    c-1.8,2.7-4.5,4.6-7.7,5.3c-0.8,0.2-1.7,0.3-2.6,0.3c-2.3,0-4.6-0.7-6.6-2c-5.6-3.7-7.2-11.2-3.6-16.9c1.7-2.5,4.1-4.2,6.8-5    l-0.2-25.8c-5.6-1.3-11.5-2.1-17.7-2.3l-2.4,54.5l12.2,7.9l0.2,36.1c1,0.3,1.9,0.7,2.8,1.3c2.7,1.8,4.6,4.5,5.3,7.7    c0.7,3.2,0.1,6.5-1.7,9.2c-2.3,3.6-6.3,5.5-10.3,5.5c-2.3,0-4.6-0.6-6.6-2c-5.6-3.7-7.2-11.2-3.6-16.9c1.6-2.5,4.1-4.2,6.8-5    l-0.2-32l-12.4-8.1l2.5-58.4c-6.6,0.2-13,0.9-19,2l-0.3,55.8l-12.7,7.6l-0.7,12.5c2.7,0.9,5,2.7,6.5,5.2    c3.4,5.8,1.5,13.3-4.2,16.7c-1.9,1.1-4.1,1.7-6.2,1.7c-1,0-2-0.1-3-0.4c-3.2-0.8-5.8-2.8-7.5-5.6c-3.4-5.8-1.5-13.3,4.2-16.7    c0.9-0.5,1.9-0.9,2.9-1.2l1-16.6l12.5-7.4l0.3-50c-6.6,1.6-12.8,3.6-18.7,6l-0.7,14.9c2.7,0.9,5,2.7,6.6,5.3    c1.7,2.8,2.1,6.1,1.3,9.2c-0.8,3.2-2.8,5.8-5.6,7.5c-1.9,1.1-4,1.7-6.2,1.7c-1,0-2-0.1-3-0.4c-3.2-0.8-5.8-2.8-7.5-5.6    c-3.4-5.8-1.5-13.3,4.2-16.7h0c0.9-0.5,1.8-0.9,2.8-1.2l0.5-11.4c-35.6,17.4-54.2,47.3-56.5,57.2c0,0,16.2,44.6,105.9,92.2    c0,0,82.4-37.8,109.9-90.9C609.5,594.5,584.6,542.9,535.1,527.4z" style="fill: #8DC63F;"></path><path id="XMLID_88_" class="st2" d="M531.4,558c-1.6,0-3.2,0.8-4.1,2.2c-1.5,2.3-0.8,5.3,1.4,6.8c1.1,0.7,2.4,1,3.7,0.7    c1.3-0.3,2.4-1,3.1-2.1c0.7-1.1,1-2.4,0.7-3.7c-0.3-1.3-1-2.4-2.1-3.1l0,0C533.2,558.3,532.3,558,531.4,558z" style="fill: #8DC63F;"></path><path id="XMLID_89_" class="st2" d="M516.2,628.3c-0.3,0-0.7,0-1,0.1c-1.3,0.3-2.4,1-3.1,2.1c-1.5,2.3-0.8,5.3,1.4,6.8    c2.3,1.5,5.3,0.8,6.8-1.4c0.7-1.1,1-2.4,0.7-3.7c-0.3-1.3-1-2.4-2.1-3.1l0,0C518.1,628.5,517.2,628.3,516.2,628.3z" style="fill: #8DC63F;"></path><path id="XMLID_90_" class="st2" d="M461.8,614.9c0.7,1.1,1.7,1.9,3,2.2c1.3,0.3,2.6,0.1,3.7-0.5c2.3-1.4,3.1-4.4,1.7-6.7    c-0.7-1.1-1.7-1.9-3-2.2c-0.4-0.1-0.8-0.2-1.2-0.2c-0.9,0-1.7,0.2-2.5,0.7C461.2,609.6,460.4,612.6,461.8,614.9z" style="fill: #8DC63F;"></path><path id="XMLID_30_" class="st1" d="M678.7,374.3l-0.5-3.3l-151.6-37.5l-4-1c0-0.1,0-0.3,0-0.4c0-12.3-10-22.3-22.3-22.3  c-12.3,0-22.3,10-22.3,22.3c0,12.3,10,22.3,22.3,22.3c8.6,0,16.2-5,19.8-12.2l4,1L669.2,379c1.5,13.4,5.8,65.8-8.8,125.3  c-3.8,15.5-8.5,30.2-14.1,44.1c3.3,0.8,6.4,2.2,9,4.1c5.9-14.5,10.9-29.8,14.8-45.8C687.4,436,679,376.8,678.7,374.3z M500.3,344.3  c-6.8,0-12.3-5.5-12.3-12.3c0-6.8,5.5-12.3,12.3-12.3c6.1,0,11.1,4.4,12.1,10.2c0.1,0.7,0.2,1.4,0.2,2.1c0,2.9-1,5.5-2.6,7.6  C507.7,342.5,504.2,344.3,500.3,344.3z" style="fill: #2F77BD;"></path><path id="XMLID_43_" class="st2" d="M640.1,551.7c-12.3,0-22.3,10-22.3,22.3c0,6.5,2.8,12.3,7.2,16.4c-0.7,1.1-1.4,2.3-2.2,3.4  c-28.7,44.7-69.8,78.1-122.9,99.8c-8.8-3.4-50.3-21-90-62.8c-9.8-10.3-19.9-22.7-29.6-37.3c-2.5,2.3-5.4,4-8.7,5.2  c9.2,13.9,19.5,26.9,31,39c46.1,48.6,93.7,65.3,95.7,66l1.8,0.6l1.7-0.7c48.5-19.5,88-49,117.4-87.7c4.2-5.5,8.2-11.3,12-17.2  c0.7-1.2,1.5-2.3,2.2-3.5c2.1,0.6,4.3,1,6.6,1c12.3,0,22.3-10,22.3-22.3C662.4,561.7,652.4,551.7,640.1,551.7z M640.1,586.3  c-0.4,0-0.8,0-1.2-0.1c-3.5-0.3-6.5-2.1-8.6-4.8c-1.6-2.1-2.5-4.7-2.5-7.5c0-6.8,5.5-12.3,12.3-12.3c6.8,0,12.3,5.5,12.3,12.3  C652.4,580.8,646.9,586.3,640.1,586.3z" style="fill: #8DC63F;"></path><path id="XMLID_46_" class="st0" d="M385.2,574c0-12.3-10-22.3-22.3-22.3c-1.8,0-3.5,0.2-5.1,0.6c-0.5-1.2-1.1-2.5-1.6-3.7  c-18.2-42.3-29.9-96.8-25.8-166l146.2-39.1c-1.4-3-2.3-6.2-2.6-9.7l-153.1,41l-0.2,3.6c-4,58.8,2.8,112.4,20.2,159.5  c1.9,5.2,3.9,10.2,6.1,15.2c0.5,1.3,1.1,2.5,1.7,3.8c-4.9,4.1-8.1,10.3-8.1,17.2c0,12.3,10,22.3,22.3,22.3  C375.2,596.3,385.2,586.3,385.2,574z M362.9,586.3c-6.8,0-12.3-5.5-12.3-12.3c0-2.8,1-5.5,2.6-7.5c2.1-2.7,5.4-4.5,9-4.7  c0.2,0,0.4,0,0.7,0c6.8,0,12.3,5.5,12.3,12.3C375.2,580.8,369.7,586.3,362.9,586.3z" style="fill: #F7941E;"></path></svg> <svg y="360.61000061035156" viewBox="1.6600000858306885 11.010000228881836 168.63999938964844 31.780000686645508" x="203.18000030517578" height="31.780000686645508" width="168.63999938964844" xmlns="http://www.w3.org/2000/svg" style="overflow: visible;"><g fill="#2F77BD" fill-opacity="1" style=""><path d="M12.45 31.43L8.56 31.43L7.20 42.44L1.66 42.44L5.46 11.35L14.92 11.35Q17.57 11.35 19.47 11.99Q21.37 12.62 22.60 13.76Q23.82 14.90 24.41 16.46Q25.00 18.02 25.00 19.89L25.00 19.89Q25.00 22.38 24.22 24.50Q23.44 26.62 21.87 28.15Q20.30 29.69 17.94 30.56Q15.59 31.43 12.45 31.43L12.45 31.43ZM14.38 15.65L10.51 15.65L9.09 27.09L13.01 27.09Q14.64 27.09 15.85 26.60Q17.05 26.10 17.85 25.21Q18.64 24.32 19.02 23.09Q19.39 21.87 19.39 20.38L19.39 20.38Q19.39 19.33 19.09 18.45Q18.79 17.57 18.17 16.95Q17.54 16.34 16.61 16.00Q15.67 15.65 14.38 15.65L14.38 15.65ZM39.41 38.05L39.41 38.05Q40.72 38.05 41.70 37.85Q42.68 37.65 43.40 37.32Q44.12 37.00 44.63 36.65Q45.15 36.29 45.54 35.97Q45.92 35.65 46.23 35.44Q46.53 35.24 46.83 35.24L46.83 35.24Q47.09 35.24 47.26 35.35Q47.43 35.45 47.54 35.56L47.54 35.56L49.49 37.99Q47.47 40.31 44.74 41.55Q42.01 42.79 38.46 42.79L38.46 42.79Q35.60 42.79 33.37 41.76Q31.13 40.74 29.58 38.94Q28.04 37.13 27.23 34.66Q26.42 32.19 26.42 29.26L26.42 29.26Q26.42 26.57 27.00 24.18Q27.58 21.78 28.66 19.75Q29.73 17.72 31.24 16.10Q32.74 14.49 34.57 13.35Q36.40 12.21 38.52 11.61Q40.64 11.01 42.94 11.01L42.94 11.01Q44.63 11.01 46.03 11.32Q47.43 11.63 48.57 12.19Q49.71 12.75 50.61 13.53Q51.51 14.32 52.25 15.29L52.25 15.29L50.31 17.61Q50.10 17.87 49.80 18.06Q49.51 18.25 49.08 18.25L49.08 18.25Q48.61 18.25 48.18 17.87Q47.75 17.48 47.10 17.02Q46.44 16.55 45.40 16.17Q44.35 15.78 42.66 15.78L42.66 15.78Q40.42 15.78 38.51 16.69Q36.59 17.61 35.17 19.31Q33.76 21.01 32.95 23.40Q32.14 25.80 32.14 28.79L32.14 28.79Q32.14 30.96 32.69 32.68Q33.24 34.40 34.21 35.59Q35.17 36.79 36.51 37.42Q37.84 38.05 39.41 38.05ZM63.23 42.44L52.29 42.44L56.12 11.35L66.09 11.35Q68.67 11.35 70.51 11.86Q72.35 12.36 73.52 13.29Q74.69 14.21 75.25 15.52Q75.81 16.83 75.81 18.45L75.81 18.45Q75.81 19.78 75.45 20.99Q75.10 22.21 74.35 23.24Q73.59 24.27 72.43 25.09Q71.27 25.91 69.66 26.45L69.66 26.45Q72.30 27.11 73.59 28.61Q74.88 30.10 74.88 32.40L74.88 32.40Q74.88 34.55 74.09 36.39Q73.29 38.23 71.79 39.57Q70.28 40.91 68.12 41.68Q65.96 42.44 63.23 42.44L63.23 42.44ZM64.78 28.75L59.53 28.75L58.39 38.10L63.66 38.10Q65.17 38.10 66.24 37.69Q67.32 37.28 68.02 36.54Q68.71 35.80 69.05 34.75Q69.38 33.71 69.38 32.47L69.38 32.47Q69.38 30.77 68.31 29.76Q67.23 28.75 64.78 28.75L64.78 28.75ZM61.15 15.65L60.01 24.90L64.13 24.90Q67.02 24.90 68.57 23.54Q70.13 22.19 70.13 19.39L70.13 19.39Q70.13 17.44 69.03 16.54Q67.92 15.65 65.58 15.65L65.58 15.65L61.15 15.65ZM91.16 38.05L91.16 38.05Q92.47 38.05 93.45 37.85Q94.43 37.65 95.15 37.32Q95.87 37.00 96.38 36.65Q96.90 36.29 97.29 35.97Q97.67 35.65 97.98 35.44Q98.28 35.24 98.58 35.24L98.58 35.24Q98.84 35.24 99.01 35.35Q99.18 35.45 99.29 35.56L99.29 35.56L101.24 37.99Q99.22 40.31 96.49 41.55Q93.76 42.79 90.21 42.79L90.21 42.79Q87.35 42.79 85.12 41.76Q82.88 40.74 81.33 38.94Q79.79 37.13 78.98 34.66Q78.17 32.19 78.17 29.26L78.17 29.26Q78.17 26.57 78.75 24.18Q79.33 21.78 80.41 19.75Q81.48 17.72 82.99 16.10Q84.50 14.49 86.32 13.35Q88.15 12.21 90.27 11.61Q92.39 11.01 94.69 11.01L94.69 11.01Q96.38 11.01 97.78 11.32Q99.18 11.63 100.32 12.19Q101.46 12.75 102.36 13.53Q103.26 14.32 104.00 15.29L104.00 15.29L102.06 17.61Q101.85 17.87 101.56 18.06Q101.27 18.25 100.84 18.25L100.84 18.25Q100.36 18.25 99.93 17.87Q99.50 17.48 98.85 17.02Q98.19 16.55 97.15 16.17Q96.11 15.78 94.41 15.78L94.41 15.78Q92.17 15.78 90.26 16.69Q88.34 17.61 86.92 19.31Q85.51 21.01 84.70 23.40Q83.89 25.80 83.89 28.79L83.89 28.79Q83.89 30.96 84.44 32.68Q84.99 34.40 85.96 35.59Q86.92 36.79 88.26 37.42Q89.59 38.05 91.16 38.05ZM108.85 42.44L103.65 42.44L106.34 20.36L109.03 20.36Q109.80 20.36 110.30 20.70Q110.79 21.05 110.79 21.80L110.79 21.80Q110.79 21.80 110.79 21.88Q110.79 21.95 110.77 22.32Q110.75 22.68 110.73 23.47Q110.70 24.25 110.64 25.67L110.64 25.67Q111.99 23.07 113.61 21.65Q115.22 20.23 116.96 20.23L116.96 20.23Q117.84 20.23 118.74 20.62L118.74 20.62L117.78 25.69Q116.70 25.24 115.73 25.24L115.73 25.24Q113.82 25.24 112.38 27.07Q110.94 28.90 110.02 32.79L110.02 32.79L108.85 42.44ZM137.04 25.50L137.04 25.50Q137.04 26.98 136.45 28.21Q135.86 29.43 134.33 30.40Q132.81 31.37 130.19 32.07Q127.58 32.77 123.54 33.17L123.54 33.17L123.54 33.45Q123.54 38.66 127.95 38.66L127.95 38.66Q128.89 38.66 129.62 38.47Q130.35 38.29 130.90 38.03Q131.45 37.78 131.89 37.45Q132.33 37.13 132.71 36.87Q133.09 36.61 133.45 36.43Q133.82 36.25 134.25 36.25L134.25 36.25Q134.50 36.25 134.76 36.37Q135.02 36.49 135.19 36.72L135.19 36.72L136.55 38.36Q135.41 39.50 134.31 40.33Q133.21 41.17 132.07 41.71Q130.94 42.25 129.67 42.51Q128.40 42.76 126.89 42.76L126.89 42.76Q124.96 42.76 123.39 42.11Q121.82 41.45 120.70 40.26Q119.58 39.07 118.97 37.38Q118.36 35.69 118.36 33.60L118.36 33.60Q118.36 31.86 118.73 30.19Q119.11 28.51 119.82 27.00Q120.53 25.50 121.56 24.23Q122.59 22.96 123.89 22.04Q125.19 21.11 126.75 20.60Q128.31 20.08 130.10 20.08L130.10 20.08Q131.84 20.08 133.14 20.58Q134.44 21.07 135.31 21.85Q136.18 22.64 136.61 23.61Q137.04 24.57 137.04 25.50ZM129.80 23.78L129.80 23.78Q128.72 23.78 127.80 24.22Q126.87 24.66 126.13 25.46Q125.39 26.25 124.84 27.36Q124.29 28.47 123.97 29.78L123.97 29.78Q126.64 29.41 128.26 28.98Q129.88 28.55 130.77 28.04Q131.67 27.52 131.96 26.94Q132.25 26.36 132.25 25.69L132.25 25.69Q132.25 25.37 132.11 25.03Q131.97 24.68 131.68 24.41Q131.39 24.14 130.92 23.96Q130.46 23.78 129.80 23.78ZM143.04 42.44L139.30 20.38L143.32 20.38Q143.88 20.38 144.24 20.66Q144.61 20.94 144.65 21.37L144.65 21.37L145.94 33.15Q146.05 34.12 146.06 35.02Q146.07 35.93 146.11 36.83L146.11 36.83Q146.44 35.93 146.79 35.02Q147.15 34.12 147.53 33.15L147.53 33.15L152.33 21.33Q152.50 20.90 152.89 20.62Q153.27 20.34 153.75 20.34L153.75 20.34L156.03 20.34Q156.58 20.34 156.91 20.62Q157.23 20.90 157.29 21.33L157.29 21.33L159.14 33.15Q159.29 34.12 159.40 35.02Q159.51 35.93 159.59 36.83L159.59 36.83Q159.83 35.93 160.10 35.02Q160.37 34.12 160.73 33.15L160.73 33.15L165.01 21.37Q165.16 20.94 165.55 20.66Q165.94 20.38 166.43 20.38L166.43 20.38L170.30 20.38L161.21 42.44L157.10 42.44Q156.43 42.44 156.28 41.50L156.28 41.50L154.18 28.75Q154.05 27.89 153.98 27.09L153.98 27.09Q153.83 27.52 153.68 27.94Q153.53 28.36 153.36 28.79L153.36 28.79L148.11 41.50Q147.73 42.44 146.97 42.44L146.97 42.44L143.04 42.44Z" transform="translate(0, 0)"></path></g></svg></svg>
                </g>
            </svg>
        